<svg width="154" height="40" viewBox="0 0 154 40" fill="none" xmlns="http://www.w3.org/2000/svg">
<g clip-path="url(#clip0_5_1506)">
<path d="M33.3333 16.6667H33.1417C33.3729 15.9055 33.4252 15.1012 33.2946 14.3165C33.164 13.5317 32.8539 12.7878 32.3885 12.1425C31.9232 11.4973 31.3151 10.9683 30.6117 10.5966C29.9083 10.225 29.1286 10.0208 28.3333 10H5C-4.085 10.62 1.66667 24.4183 4.01833 28.1867C5.07294 29.7842 6.51087 31.0922 8.20088 31.9912C9.8909 32.8902 11.7792 33.3516 13.6933 33.3333H19.6383C21.5216 33.3506 23.38 32.9033 25.0492 32.0312C26.7184 31.1591 28.1469 29.889 29.2083 28.3333H33.3333C41.3567 28.1783 42.9317 16.37 33.3333 16.6667ZM19.6383 30H13.6933C12.3336 30.0183 10.991 29.6955 9.78827 29.0611C8.58551 28.4267 7.56097 27.5009 6.80833 26.3683C5.90167 25.5 0.823333 13.3333 5 13.3333H28.3333C28.5626 13.3326 28.7895 13.3805 28.9989 13.4738C29.2084 13.5672 29.3956 13.7039 29.5483 13.875C29.7108 14.054 29.8335 14.2653 29.9085 14.4951C29.9835 14.7249 30.009 14.968 29.9833 15.2083C29.045 22.3067 27.28 29.685 19.6383 30ZM33.3333 25H30.98C31.6651 23.3867 32.1975 21.7127 32.57 20C34.585 19.865 36.8133 20.36 36.6667 21.905C36.6125 22.7494 36.2368 23.541 35.6167 24.1167C34.9966 24.6924 34.1794 25.0086 33.3333 25ZM15.0417 5V1.66667C15.0417 1.22464 15.2173 0.800716 15.5298 0.488155C15.8424 0.175595 16.2663 0 16.7083 0C17.1504 0 17.5743 0.175595 17.8868 0.488155C18.1994 0.800716 18.375 1.22464 18.375 1.66667V5C18.375 5.44203 18.1994 5.86595 17.8868 6.17851C17.5743 6.49107 17.1504 6.66667 16.7083 6.66667C16.2663 6.66667 15.8424 6.49107 15.5298 6.17851C15.2173 5.86595 15.0417 5.44203 15.0417 5ZM21.7083 5V1.66667C21.7083 1.22464 21.8839 0.800716 22.1965 0.488155C22.509 0.175595 22.933 0 23.375 0C23.817 0 24.241 0.175595 24.5535 0.488155C24.8661 0.800716 25.0417 1.22464 25.0417 1.66667V5C25.0417 5.44203 24.8661 5.86595 24.5535 6.17851C24.241 6.49107 23.817 6.66667 23.375 6.66667C22.933 6.66667 22.509 6.49107 22.1965 6.17851C21.8839 5.86595 21.7083 5.44203 21.7083 5ZM8.375 5V1.66667C8.375 1.22464 8.55059 0.800716 8.86315 0.488155C9.17572 0.175595 9.59964 0 10.0417 0C10.4837 0 10.9076 0.175595 11.2202 0.488155C11.5327 0.800716 11.7083 1.22464 11.7083 1.66667V5C11.7083 5.44203 11.5327 5.86595 11.2202 6.17851C10.9076 6.49107 10.4837 6.66667 10.0417 6.66667C9.59964 6.66667 9.17572 6.49107 8.86315 6.17851C8.55059 5.86595 8.375 5.44203 8.375 5ZM33.3333 38.3333C33.3333 38.7754 33.1577 39.1993 32.8452 39.5118C32.5326 39.8244 32.1087 40 31.6667 40H1.66667C1.22464 40 0.800716 39.8244 0.488155 39.5118C0.175595 39.1993 0 38.7754 0 38.3333C0 37.8913 0.175595 37.4674 0.488155 37.1548C0.800716 36.8423 1.22464 36.6667 1.66667 36.6667H31.6667C32.1087 36.6667 32.5326 36.8423 32.8452 37.1548C33.1577 37.4674 33.3333 37.8913 33.3333 38.3333Z" fill="white"/>
</g>
<path d="M64.6 34.672C63.128 34.672 61.7627 34.2987 60.504 33.552C59.2667 32.8053 58.2853 31.792 57.56 30.512C56.8347 29.232 56.472 27.8027 56.472 26.224C56.472 24.5387 56.8133 23.0453 57.496 21.744C58.2 20.4213 59.16 19.3973 60.376 18.672C61.6133 17.9467 63 17.584 64.536 17.584C65.688 17.584 66.7333 17.7973 67.672 18.224C68.6107 18.6507 69.368 19.248 69.944 20.016C70.5413 20.784 70.8827 21.6587 70.968 22.64V22.8C70.968 23.2693 70.8507 23.632 70.616 23.888C70.3813 24.1227 70.072 24.24 69.688 24.24C69.368 24.24 69.0907 24.1227 68.856 23.888C68.6213 23.6533 68.4827 23.3013 68.44 22.832C68.3547 22.0853 67.9387 21.456 67.192 20.944C66.4667 20.4107 65.5813 20.144 64.536 20.144C63.4907 20.144 62.552 20.4 61.72 20.912C60.888 21.424 60.2267 22.1493 59.736 23.088C59.2667 24.0267 59.032 25.1147 59.032 26.352C59.032 27.4187 59.2773 28.4 59.768 29.296C60.28 30.1707 60.9627 30.864 61.816 31.376C62.6693 31.8667 63.5973 32.112 64.6 32.112C65.56 32.112 66.456 31.952 67.288 31.632C68.1413 31.312 68.7813 30.896 69.208 30.384C69.3147 30.2773 69.464 30.1813 69.656 30.096C69.848 30.0107 70.0293 29.968 70.2 29.968C70.5627 29.968 70.8613 30.096 71.096 30.352C71.352 30.5867 71.48 30.8853 71.48 31.248C71.48 31.4827 71.3733 31.7707 71.16 32.112C70.5627 32.8587 69.656 33.4773 68.44 33.968C67.224 34.4373 65.944 34.672 64.6 34.672ZM82.4743 34.576C80.9169 34.576 79.5196 34.2027 78.2823 33.456C77.0449 32.7093 76.0849 31.6853 75.4023 30.384C74.7196 29.0613 74.3783 27.5787 74.3783 25.936C74.3783 24.2933 74.7196 22.8213 75.4023 21.52C76.0849 20.2187 77.0449 19.1947 78.2823 18.448C79.5196 17.7013 80.9169 17.328 82.4743 17.328C84.0316 17.328 85.4289 17.7013 86.6663 18.448C87.9036 19.1947 88.8636 20.2187 89.5463 21.52C90.2289 22.8213 90.5703 24.2933 90.5703 25.936C90.5703 27.5787 90.2289 29.0613 89.5463 30.384C88.8636 31.6853 87.9036 32.7093 86.6663 33.456C85.4289 34.2027 84.0316 34.576 82.4743 34.576ZM82.4743 32.016C83.5623 32.016 84.5223 31.76 85.3543 31.248C86.1863 30.7147 86.8369 29.9893 87.3063 29.072C87.7756 28.1547 88.0103 27.1093 88.0103 25.936C88.0103 24.7627 87.7756 23.7173 87.3063 22.8C86.8369 21.8827 86.1863 21.168 85.3543 20.656C84.5223 20.144 83.5623 19.888 82.4743 19.888C81.3863 19.888 80.4156 20.144 79.5623 20.656C78.7303 21.168 78.0796 21.8827 77.6102 22.8C77.1623 23.7173 76.9383 24.7627 76.9383 25.936C76.9383 27.1093 77.1623 28.1547 77.6102 29.072C78.0796 29.9893 78.7303 30.7147 79.5623 31.248C80.4156 31.76 81.3863 32.016 82.4743 32.016ZM101.728 17.648C102.091 17.648 102.389 17.776 102.624 18.032C102.88 18.2667 103.008 18.5653 103.008 18.928C103.008 19.2693 102.88 19.568 102.624 19.824C102.389 20.08 102.091 20.208 101.728 20.208H98.592V33.168C98.592 33.5093 98.464 33.808 98.208 34.064C97.952 34.32 97.6427 34.448 97.28 34.448C96.9173 34.448 96.6187 34.32 96.384 34.064C96.1493 33.8293 96.032 33.5307 96.032 33.168V20.208H94.528C94.1867 20.208 93.888 20.08 93.632 19.824C93.376 19.568 93.248 19.2693 93.248 18.928C93.248 18.5653 93.376 18.2667 93.632 18.032C93.888 17.776 94.1867 17.648 94.528 17.648H96.032V12.752C96.032 10.7893 96.48 9.14667 97.376 7.824C98.272 6.48 99.4667 5.68 100.96 5.424C100.981 5.40266 101.035 5.392 101.12 5.392C101.461 5.392 101.76 5.52 102.016 5.776C102.293 6.032 102.432 6.34133 102.432 6.704C102.432 7.00267 102.325 7.28 102.112 7.536C101.899 7.77067 101.632 7.90933 101.312 7.952C100.501 8.05867 99.84 8.56 99.328 9.456C98.8373 10.3307 98.592 11.4293 98.592 12.752V17.648H101.728ZM113.791 17.648C114.153 17.648 114.452 17.776 114.687 18.032C114.943 18.2667 115.071 18.5653 115.071 18.928C115.071 19.2693 114.943 19.568 114.687 19.824C114.452 20.08 114.153 20.208 113.791 20.208H110.655V33.168C110.655 33.5093 110.527 33.808 110.271 34.064C110.015 34.32 109.705 34.448 109.343 34.448C108.98 34.448 108.681 34.32 108.447 34.064C108.212 33.8293 108.095 33.5307 108.095 33.168V20.208H106.591C106.249 20.208 105.951 20.08 105.695 19.824C105.439 19.568 105.311 19.2693 105.311 18.928C105.311 18.5653 105.439 18.2667 105.695 18.032C105.951 17.776 106.249 17.648 106.591 17.648H108.095V12.752C108.095 10.7893 108.543 9.14667 109.439 7.824C110.335 6.48 111.529 5.68 113.023 5.424C113.044 5.40266 113.097 5.392 113.183 5.392C113.524 5.392 113.823 5.52 114.079 5.776C114.356 6.032 114.495 6.34133 114.495 6.704C114.495 7.00267 114.388 7.28 114.175 7.536C113.961 7.77067 113.695 7.90933 113.375 7.952C112.564 8.05867 111.903 8.56 111.391 9.456C110.9 10.3307 110.655 11.4293 110.655 12.752V17.648H113.791ZM131.965 30.032C132.306 30.032 132.584 30.1493 132.797 30.384C133.01 30.5973 133.117 30.864 133.117 31.184C133.117 31.5893 133.01 31.9093 132.797 32.144C132.136 32.912 131.186 33.52 129.949 33.968C128.712 34.416 127.378 34.64 125.949 34.64C124.37 34.64 122.941 34.288 121.661 33.584C120.402 32.88 119.41 31.8987 118.685 30.64C117.96 29.3813 117.597 27.9627 117.597 26.384C117.597 24.72 117.97 23.2053 118.717 21.84C119.464 20.4747 120.477 19.408 121.757 18.64C123.058 17.8507 124.488 17.456 126.045 17.456C127.325 17.456 128.466 17.6693 129.469 18.096C130.493 18.5227 131.293 19.12 131.869 19.888C132.445 20.656 132.733 21.5093 132.733 22.448C132.733 23.792 132.125 24.88 130.909 25.712C129.693 26.5227 128.093 26.928 126.109 26.928C124.957 26.928 123.869 26.7893 122.845 26.512C121.821 26.2347 120.946 25.8507 120.221 25.36C120.178 25.872 120.157 26.256 120.157 26.512C120.157 28.176 120.69 29.52 121.757 30.544C122.845 31.568 124.242 32.08 125.949 32.08C128.253 32.08 129.906 31.5253 130.909 30.416C131.208 30.16 131.56 30.032 131.965 30.032ZM126.045 20.016C124.893 20.016 123.869 20.2827 122.973 20.816C122.077 21.328 121.384 22.0747 120.893 23.056C121.512 23.504 122.269 23.8773 123.165 24.176C124.061 24.4747 125.042 24.624 126.109 24.624C127.325 24.624 128.306 24.432 129.053 24.048C129.8 23.664 130.173 23.1733 130.173 22.576C130.173 21.8507 129.778 21.2427 128.989 20.752C128.221 20.2613 127.24 20.016 126.045 20.016ZM150.434 30.032C150.775 30.032 151.052 30.1493 151.266 30.384C151.479 30.5973 151.586 30.864 151.586 31.184C151.586 31.5893 151.479 31.9093 151.266 32.144C150.604 32.912 149.655 33.52 148.418 33.968C147.18 34.416 145.847 34.64 144.418 34.64C142.839 34.64 141.41 34.288 140.13 33.584C138.871 32.88 137.879 31.8987 137.154 30.64C136.428 29.3813 136.066 27.9627 136.066 26.384C136.066 24.72 136.439 23.2053 137.186 21.84C137.932 20.4747 138.946 19.408 140.226 18.64C141.527 17.8507 142.956 17.456 144.514 17.456C145.794 17.456 146.935 17.6693 147.938 18.096C148.962 18.5227 149.762 19.12 150.338 19.888C150.914 20.656 151.202 21.5093 151.202 22.448C151.202 23.792 150.594 24.88 149.378 25.712C148.162 26.5227 146.562 26.928 144.578 26.928C143.426 26.928 142.338 26.7893 141.314 26.512C140.29 26.2347 139.415 25.8507 138.69 25.36C138.647 25.872 138.626 26.256 138.626 26.512C138.626 28.176 139.159 29.52 140.226 30.544C141.314 31.568 142.711 32.08 144.418 32.08C146.722 32.08 148.375 31.5253 149.378 30.416C149.676 30.16 150.028 30.032 150.434 30.032ZM144.514 20.016C143.362 20.016 142.338 20.2827 141.442 20.816C140.546 21.328 139.852 22.0747 139.362 23.056C139.98 23.504 140.738 23.8773 141.634 24.176C142.53 24.4747 143.511 24.624 144.578 24.624C145.794 24.624 146.775 24.432 147.522 24.048C148.268 23.664 148.642 23.1733 148.642 22.576C148.642 21.8507 148.247 21.2427 147.458 20.752C146.69 20.2613 145.708 20.016 144.514 20.016Z" fill="white"/>
<defs>
<clipPath id="clip0_5_1506">
<rect width="40" height="40" fill="white"/>
</clipPath>
</defs>
</svg>
