<svg>

    <symbol id="searh" width="36" height="36" viewBox="0 0 36 36" fill="none" xmlns="http://www.w3.org/2000/svg">
        <g clip-path="url(#clip0_5_1214)">
        <path d="M35.0728 33.0106L26.368 24.3058C28.7401 21.4046 29.9064 17.7026 29.6257 13.9656C29.3449 10.2286 27.6385 6.74244 24.8594 4.22826C22.0804 1.71408 18.4413 0.364217 14.6949 0.457888C10.9486 0.551559 7.38149 2.0816 4.73157 4.73152C2.08164 7.38144 0.551609 10.9485 0.457938 14.6949C0.364266 18.4413 1.71413 22.0804 4.22831 24.8594C6.74249 27.6384 10.2286 29.3448 13.9657 29.6256C17.7027 29.9064 21.4047 28.7401 24.3059 26.3679L33.0107 35.0727C33.2857 35.3384 33.6541 35.4853 34.0365 35.482C34.4188 35.4787 34.7846 35.3253 35.055 35.0549C35.3254 34.7846 35.4788 34.4188 35.4821 34.0364C35.4854 33.654 35.3384 33.2857 35.0728 33.0106ZM15.0834 26.75C12.7759 26.75 10.5203 26.0658 8.60173 24.7838C6.68316 23.5019 5.18781 21.6798 4.30479 19.548C3.42176 17.4162 3.19073 15.0704 3.64089 12.8073C4.09105 10.5442 5.20219 8.46537 6.8338 6.83375C8.46542 5.20214 10.5442 4.091 12.8073 3.64084C15.0704 3.19068 17.4162 3.42171 19.548 4.30474C21.6798 5.18776 23.5019 6.68311 24.7839 8.60168C26.0658 10.5203 26.75 12.7759 26.75 15.0833C26.7466 18.1765 25.5163 21.1419 23.3291 23.3291C21.142 25.5162 18.1765 26.7465 15.0834 26.75Z" fill="white"/>
        </g>
        <defs>
        <clipPath id="clip0_5_1214">
        <rect width="35" height="35" fill="white" transform="translate(0.5 0.5)"/>
        </clipPath>
        </defs>
    </symbol>    

    <symbol id="heart" width="36" height="36" viewBox="0 0 36 36" fill="none" xmlns="http://www.w3.org/2000/svg">
        <path d="M26.0208 3.29562C24.3787 3.32117 22.7723 3.77958 21.364 4.62456C19.9557 5.46955 18.7953 6.67118 18 8.10812C17.2047 6.67118 16.0443 5.46955 14.636 4.62456C13.2276 3.77958 11.6213 3.32117 9.97915 3.29562C7.36135 3.40936 4.89497 4.55454 3.11883 6.48096C1.34269 8.40739 0.401177 10.9585 0.49998 13.5769C0.49998 20.2079 7.47956 27.45 13.3333 32.3602C14.6403 33.4585 16.2928 34.0607 18 34.0607C19.7072 34.0607 21.3597 33.4585 22.6666 32.3602C28.5204 27.45 35.5 20.2079 35.5 13.5769C35.5988 10.9585 34.6573 8.40739 32.8811 6.48096C31.105 4.55454 28.6386 3.40936 26.0208 3.29562ZM20.7927 30.129C20.011 30.7872 19.0219 31.1482 18 31.1482C16.978 31.1482 15.989 30.7872 15.2073 30.129C7.71435 23.8421 3.41665 17.8104 3.41665 13.5769C3.31696 11.7317 3.95093 9.9219 5.1803 8.54227C6.40967 7.16264 8.1347 6.32509 9.97915 6.21229C11.8236 6.32509 13.5486 7.16264 14.778 8.54227C16.0074 9.9219 16.6413 11.7317 16.5416 13.5769C16.5416 13.9636 16.6953 14.3346 16.9688 14.6081C17.2423 14.8816 17.6132 15.0352 18 15.0352C18.3868 15.0352 18.7577 14.8816 19.0312 14.6081C19.3047 14.3346 19.4583 13.9636 19.4583 13.5769C19.3586 11.7317 19.9926 9.9219 21.222 8.54227C22.4513 7.16264 24.1764 6.32509 26.0208 6.21229C27.8653 6.32509 29.5903 7.16264 30.8197 8.54227C32.049 9.9219 32.683 11.7317 32.5833 13.5769C32.5833 17.8104 28.2856 23.8421 20.7927 30.1231V30.129Z" fill="white"/>
    </symbol>

    <symbol id="cart" width="36" height="36" viewBox="0 0 36 36" fill="none" xmlns="http://www.w3.org/2000/svg">
        <g clip-path="url(#clip0_5_1219)">
        <path d="M33.6231 6.44563C33.2129 5.95335 32.6994 5.55743 32.1189 5.28598C31.5385 5.01453 30.9054 4.87422 30.2646 4.875H6.68625L6.625 4.36313C6.49965 3.29915 5.98827 2.31815 5.1878 1.60611C4.38733 0.894076 3.35342 0.500498 2.28208 0.5L1.95833 0.5C1.57156 0.5 1.20063 0.653645 0.927136 0.927136C0.653645 1.20063 0.5 1.57156 0.5 1.95833C0.5 2.34511 0.653645 2.71604 0.927136 2.98953C1.20063 3.26302 1.57156 3.41667 1.95833 3.41667H2.28208C2.63928 3.41671 2.98403 3.54785 3.25096 3.78521C3.51789 4.02257 3.68842 4.34963 3.73021 4.70437L5.73688 21.7669C5.9452 23.5414 6.79778 25.1776 8.13278 26.365C9.46779 27.5524 11.1923 28.2084 12.979 28.2083H28.2083C28.5951 28.2083 28.966 28.0547 29.2395 27.7812C29.513 27.5077 29.6667 27.1368 29.6667 26.75C29.6667 26.3632 29.513 25.9923 29.2395 25.7188C28.966 25.4453 28.5951 25.2917 28.2083 25.2917H12.979C12.0763 25.2891 11.1966 25.0075 10.4603 24.4853C9.72406 23.9631 9.16733 23.226 8.86646 22.375H26.2498C27.9594 22.3751 29.6147 21.7745 30.9264 20.6781C32.2382 19.5818 33.123 18.0594 33.4263 16.3769L34.571 10.0273C34.6853 9.3973 34.6596 8.74989 34.4958 8.13093C34.332 7.51197 34.0341 6.93661 33.6231 6.44563ZM31.7083 9.50958L30.5621 15.8592C30.38 16.8698 29.8482 17.7842 29.0598 18.4422C28.2714 19.1002 27.2767 19.4599 26.2498 19.4583H8.40271L7.03042 7.79167H30.2646C30.4788 7.79039 30.6907 7.83632 30.8852 7.92621C31.0796 8.01609 31.2519 8.14771 31.3897 8.31172C31.5276 8.47572 31.6276 8.66808 31.6826 8.87512C31.7377 9.08215 31.7465 9.29877 31.7083 9.50958Z" fill="white"/>
        <path d="M10.7083 35.5C12.3191 35.5 13.625 34.1942 13.625 32.5833C13.625 30.9725 12.3191 29.6667 10.7083 29.6667C9.09746 29.6667 7.79163 30.9725 7.79163 32.5833C7.79163 34.1942 9.09746 35.5 10.7083 35.5Z" fill="white"/>
        <path d="M25.2917 35.5C26.9025 35.5 28.2083 34.1942 28.2083 32.5833C28.2083 30.9725 26.9025 29.6667 25.2917 29.6667C23.6808 29.6667 22.375 30.9725 22.375 32.5833C22.375 34.1942 23.6808 35.5 25.2917 35.5Z" fill="white"/>
        </g>
        <defs>
        <clipPath id="clip0_5_1219">
        <rect width="35" height="35" fill="white" transform="translate(0.5 0.5)"/>
        </clipPath>
        </defs>
    </symbol>

    <symbol id="cross" width="35" height="35" viewBox="0 0 35 35" fill="none" xmlns="http://www.w3.org/2000/svg">
        <path d="M20.5932 17.5002L34.3593 3.73557C35.2138 2.88105 35.2138 1.4956 34.3593 0.641138C33.5048 -0.213387 32.1193 -0.213387 31.2649 0.641138L17.5002 14.4072L3.73557 0.641138C2.88105 -0.213387 1.4956 -0.213387 0.641138 0.641138C-0.213319 1.49566 -0.213387 2.88111 0.641138 3.73557L14.4072 17.5002L0.641138 31.2649C-0.213387 32.1194 -0.213387 33.5049 0.641138 34.3593C1.49566 35.2138 2.88111 35.2138 3.73557 34.3593L17.5002 20.5932L31.2648 34.3593C32.1193 35.2138 33.5048 35.2138 34.3592 34.3593C35.2138 33.5048 35.2138 32.1193 34.3592 31.2649L20.5932 17.5002Z" fill="white"/>
    </symbol>

    <symbol id="solid-star" width="26" height="25" viewBox="0 0 26 25" fill="none" xmlns="http://www.w3.org/2000/svg">
        <path d="M20.7781 24.2876L13 18.5709L5.22189 24.2876L8.20835 15.0553L0.434387 9.37511H10.0323L13 0.127197L15.9677 9.37511H25.5646L17.7917 15.0553L20.7781 24.2876Z" fill="white"/>
    </symbol>

    <symbol id="empty-star" width="26" height="25" viewBox="0 0 26 25" fill="none" xmlns="http://www.w3.org/2000/svg">
        <g clip-path="url(#clip0_13_152)">
        <path d="M20.7781 24.2876L13 18.5709L5.22189 24.2876L8.20835 15.0553L0.434387 9.37511H10.0323L13 0.127197L15.9677 9.37511H25.5646L17.7917 15.0553L20.7781 24.2876ZM13 15.9855L16.8104 18.7866L15.3521 14.2616L19.1844 11.4584H14.4479L13 6.94699L11.5521 11.4584H6.8146L10.6511 14.2616L9.19272 18.7866L13 15.9855Z" fill="white"/>
        </g>
        <defs>
        <clipPath id="clip0_13_152">
        <rect width="25" height="25" fill="white" transform="translate(0.5)"/>
        </clipPath>
        </defs>
    </symbol>

    <symbol id="profile" width="35" height="35" viewBox="0 0 35 35" fill="none" xmlns="http://www.w3.org/2000/svg">
        <g clip-path="url(#clip0_13_22)">
        <path d="M17.5 17.5C19.2306 17.5 20.9223 16.9868 22.3612 16.0254C23.8002 15.0639 24.9217 13.6973 25.5839 12.0985C26.2462 10.4996 26.4195 8.7403 26.0819 7.04296C25.7443 5.34563 24.9109 3.78653 23.6872 2.56282C22.4635 1.33911 20.9044 0.505753 19.207 0.168133C17.5097 -0.169488 15.7504 0.00379125 14.1515 0.666058C12.5527 1.32832 11.1861 2.44983 10.2246 3.88876C9.26318 5.32769 8.75 7.01942 8.75 8.75C8.75232 11.0699 9.67493 13.2942 11.3154 14.9346C12.9558 16.5751 15.1801 17.4977 17.5 17.5ZM17.5 2.91667C18.6537 2.91667 19.7815 3.25879 20.7408 3.89976C21.7001 4.54074 22.4478 5.45178 22.8893 6.51768C23.3308 7.58359 23.4463 8.75647 23.2212 9.88803C22.9962 11.0196 22.4406 12.059 21.6248 12.8748C20.809 13.6906 19.7696 14.2462 18.638 14.4713C17.5065 14.6963 16.3336 14.5808 15.2677 14.1393C14.2018 13.6978 13.2907 12.9501 12.6498 11.9908C12.0088 11.0315 11.6667 9.90373 11.6667 8.75C11.6667 7.20291 12.2812 5.71918 13.3752 4.62521C14.4692 3.53125 15.9529 2.91667 17.5 2.91667Z" fill="white"/>
        <path d="M17.5 20.4165C14.0202 20.4204 10.6841 21.8044 8.22349 24.265C5.76291 26.7256 4.37886 30.0617 4.375 33.5415C4.375 33.9283 4.52865 34.2992 4.80214 34.5727C5.07563 34.8462 5.44656 34.9998 5.83333 34.9998C6.22011 34.9998 6.59104 34.8462 6.86453 34.5727C7.13802 34.2992 7.29167 33.9283 7.29167 33.5415C7.29167 30.8341 8.36718 28.2376 10.2816 26.3231C12.1961 24.4087 14.7926 23.3332 17.5 23.3332C20.2074 23.3332 22.8039 24.4087 24.7184 26.3231C26.6328 28.2376 27.7083 30.8341 27.7083 33.5415C27.7083 33.9283 27.862 34.2992 28.1355 34.5727C28.409 34.8462 28.7799 34.9998 29.1667 34.9998C29.5534 34.9998 29.9244 34.8462 30.1979 34.5727C30.4714 34.2992 30.625 33.9283 30.625 33.5415C30.6211 30.0617 29.2371 26.7256 26.7765 24.265C24.3159 21.8044 20.9798 20.4204 17.5 20.4165Z" fill="white"/>
        </g>
        <defs>
        <clipPath id="clip0_13_22">
        <rect width="35" height="35" fill="white"/>
        </clipPath>
        </defs>
    </symbol>

    <symbol id="email" width="35" height="35" viewBox="0 0 35 35" fill="none" xmlns="http://www.w3.org/2000/svg">
        <g clip-path="url(#clip0_13_134)">
        <path d="M27.7083 1.4585H7.29167C5.35851 1.46081 3.50519 2.22978 2.13824 3.59673C0.771286 4.96369 0.00231563 6.817 0 8.75016L0 26.2502C0.00231563 28.1833 0.771286 30.0366 2.13824 31.4036C3.50519 32.7705 5.35851 33.5395 7.29167 33.5418H27.7083C29.6415 33.5395 31.4948 32.7705 32.8618 31.4036C34.2287 30.0366 34.9977 28.1833 35 26.2502V8.75016C34.9977 6.817 34.2287 4.96369 32.8618 3.59673C31.4948 2.22978 29.6415 1.46081 27.7083 1.4585ZM7.29167 4.37516H27.7083C28.5816 4.37688 29.4343 4.63987 30.1568 5.13029C30.8793 5.62072 31.4385 6.31613 31.7625 7.12704L20.5946 18.2964C19.7727 19.115 18.66 19.5746 17.5 19.5746C16.34 19.5746 15.2273 19.115 14.4054 18.2964L3.2375 7.12704C3.56147 6.31613 4.12069 5.62072 4.84319 5.13029C5.5657 4.63987 6.41844 4.37688 7.29167 4.37516ZM27.7083 30.6252H7.29167C6.13134 30.6252 5.01855 30.1642 4.19807 29.3438C3.3776 28.5233 2.91667 27.4105 2.91667 26.2502V10.9377L12.3433 20.3585C13.7122 21.7239 15.5666 22.4906 17.5 22.4906C19.4334 22.4906 21.2878 21.7239 22.6567 20.3585L32.0833 10.9377V26.2502C32.0833 27.4105 31.6224 28.5233 30.8019 29.3438C29.9815 30.1642 28.8687 30.6252 27.7083 30.6252Z" fill="white"/>
        </g>
        <defs>
        <clipPath id="clip0_13_134">
        <rect width="35" height="35" fill="white"/>
        </clipPath>
        </defs>
    </symbol>

    <symbol id="phone" width="35" height="35" viewBox="0 0 35 35" fill="none" xmlns="http://www.w3.org/2000/svg">
        <path d="M32.4238 26.5714L27.5981 21.745C26.637 20.7878 25.045 20.8171 24.0502 21.8118L21.6192 24.2429C21.4657 24.1579 21.3067 24.0695 21.1395 23.9757C19.6043 23.125 17.5028 21.9591 15.2914 19.7461C13.0738 17.5287 11.9063 15.4238 11.0533 13.8876C10.9628 13.7247 10.8767 13.568 10.7917 13.419L12.4235 11.7893L13.2256 10.9862C14.222 9.98976 14.2496 8.39824 13.2902 7.43837L8.46429 2.61139C7.5055 1.65259 5.9129 1.68175 4.91647 2.67818L3.55633 4.04603L3.59381 4.08305C3.13786 4.66487 2.75641 5.33615 2.47321 6.05987C2.21161 6.74873 2.04873 7.40629 1.97423 8.06476C1.33719 13.3477 3.75114 18.1756 10.3026 24.7277C19.3585 33.783 26.6569 33.0991 26.9715 33.0654C27.6578 32.9837 28.3145 32.8197 28.9826 32.5603C29.7001 32.2799 30.371 31.8995 30.9522 31.4446L30.9819 31.4705L32.3598 30.1213C33.3541 29.1251 33.3828 27.5336 32.4238 26.5714ZM31.2878 29.0484L30.6805 29.6546L30.4387 29.887C30.0578 30.2552 29.3986 30.7724 28.4359 31.1489C27.8894 31.3593 27.3507 31.4944 26.8025 31.5597C26.7335 31.5663 19.8691 32.152 11.3734 23.6569C4.14972 16.4335 2.9921 12.2712 3.47736 8.23983C3.53813 7.70552 3.67217 7.16782 3.88642 6.6059C4.26617 5.6377 4.7829 4.97907 5.1483 4.59762L5.98787 3.74973C6.39245 3.34406 7.02348 3.31305 7.39336 3.68294L12.2191 8.50868C12.5884 8.87903 12.5592 9.51005 12.154 9.91695L8.89494 13.1728L9.19572 13.679C9.36293 13.9611 9.53969 14.2773 9.72849 14.6208C10.625 16.2376 11.8515 18.4508 14.2203 20.8174C16.5829 23.1812 18.7928 24.4067 20.4046 25.3008C20.7529 25.4935 21.071 25.6707 21.3563 25.8407L21.8637 26.1415L25.1206 22.8835C25.5268 22.4789 26.16 22.449 26.5299 22.8178L31.3535 27.6425C31.7223 28.0122 31.693 28.6432 31.2878 29.0484Z" fill="white" stroke="white" stroke-width="1.5" stroke-linecap="round" stroke-linejoin="round"/>
    </symbol>

</svg>